<svg xmlns="http://www.w3.org/2000/svg" xmlns:xlink="http://www.w3.org/1999/xlink" zoomAndPan="magnify" preserveAspectRatio="xMidYMid meet" version="1.2" viewBox="2.55 104.99 368.43 168.09"><defs/><g id="b0c07e57ab"><g style="fill:#000000;fill-opacity:1;"><g transform="translate(7.413281, 221.973669)"><path style="stroke:none" d="M 25.515625 -6.65625 C 23.253906 -5.375 21.085938 -4.304688 19.015625 -3.453125 C 16.953125 -2.597656 15.023438 -1.914062 13.234375 -1.40625 C 11.441406 -0.894531 9.832031 -0.53125 8.40625 -0.3125 C 6.976562 -0.101562 5.753906 0 4.734375 0 L -4.859375 0 L 2.109375 -3.90625 C 2.835938 -4.84375 3.539062 -5.78125 4.21875 -6.71875 C 4.90625 -7.65625 5.484375 -8.53125 5.953125 -9.34375 C 6.503906 -10.238281 7.015625 -11.132812 7.484375 -12.03125 C 8.804688 -14.707031 10.765625 -19.054688 13.359375 -25.078125 C 14.429688 -27.628906 15.703125 -30.675781 17.171875 -34.21875 C 18.640625 -37.757812 20.332031 -41.875 22.25 -46.5625 C 24.175781 -51.25 26.3125 -56.578125 28.65625 -62.546875 C 31 -68.515625 33.617188 -75.207031 36.515625 -82.625 L 47.640625 -92.859375 L 72.71875 -7.859375 C 74.507812 -7.390625 76.222656 -7.09375 77.859375 -6.96875 C 79.503906 -6.84375 81.050781 -6.78125 82.5 -6.78125 C 83.269531 -6.78125 83.972656 -6.789062 84.609375 -6.8125 C 85.253906 -6.832031 85.8125 -6.863281 86.28125 -6.90625 C 86.789062 -6.945312 87.28125 -7.007812 87.75 -7.09375 C 85.28125 -5.90625 83.128906 -4.875 81.296875 -4 C 79.460938 -3.125 77.828125 -2.382812 76.390625 -1.78125 C 74.960938 -1.1875 73.640625 -0.738281 72.421875 -0.4375 C 71.210938 -0.144531 69.988281 0 68.75 0 L 58.515625 0 L 61.84375 -2.109375 L 51.609375 -36.015625 C 50.378906 -35.671875 48.953125 -35.335938 47.328125 -35.015625 C 45.703125 -34.691406 43.769531 -34.398438 41.53125 -34.140625 C 39.300781 -33.890625 36.703125 -33.65625 33.734375 -33.4375 C 30.773438 -33.226562 27.351562 -33.039062 23.46875 -32.875 C 21.675781 -29.082031 20.035156 -25.710938 18.546875 -22.765625 C 17.054688 -19.828125 15.710938 -17.269531 14.515625 -15.09375 C 13.328125 -12.914062 12.273438 -11.082031 11.359375 -9.59375 C 10.441406 -8.101562 9.660156 -6.910156 9.015625 -6.015625 C 9.742188 -5.878906 10.554688 -5.78125 11.453125 -5.71875 C 12.347656 -5.65625 13.242188 -5.625 14.140625 -5.625 C 15.503906 -5.625 16.851562 -5.675781 18.1875 -5.78125 C 19.53125 -5.894531 20.757812 -6.015625 21.875 -6.140625 C 23.15625 -6.304688 24.367188 -6.476562 25.515625 -6.65625 Z M 34.46875 -40.484375 C 40.226562 -40.484375 45.453125 -40.613281 50.140625 -40.875 L 40.359375 -73.359375 C 37.710938 -66.578125 35.289062 -60.519531 33.09375 -55.1875 C 30.894531 -49.863281 28.816406 -44.960938 26.859375 -40.484375 Z M 34.46875 -40.484375 "/></g></g><g style="fill:#000000;fill-opacity:1;"><g transform="translate(90.611628, 221.973669)"><path style="stroke:none" d="M 23.59375 -35.5 C 23.382812 -33.0625 23.195312 -30.332031 23.03125 -27.3125 C 22.851562 -24.707031 22.65625 -21.625 22.4375 -18.0625 C 22.226562 -14.507812 22 -10.578125 21.75 -6.265625 L 11 2.875 C 11.9375 -5.820312 12.753906 -14.113281 13.453125 -22 C 14.160156 -29.882812 14.515625 -37.664062 14.515625 -45.34375 C 14.515625 -49.226562 13.984375 -52.097656 12.921875 -53.953125 C 11.859375 -55.804688 10.429688 -56.734375 8.640625 -56.734375 C 6.753906 -56.734375 4.578125 -55.773438 2.109375 -53.859375 C 2.660156 -54.367188 3.332031 -55.015625 4.125 -55.796875 C 4.914062 -56.585938 5.769531 -57.429688 6.6875 -58.328125 C 7.601562 -59.222656 8.5625 -60.117188 9.5625 -61.015625 C 10.5625 -61.910156 11.539062 -62.71875 12.5 -63.4375 C 13.457031 -64.164062 14.382812 -64.753906 15.28125 -65.203125 C 16.175781 -65.648438 16.96875 -65.875 17.65625 -65.875 C 19.3125 -65.875 20.585938 -65.40625 21.484375 -64.46875 C 22.378906 -63.53125 23.039062 -62.378906 23.46875 -61.015625 C 23.894531 -59.648438 24.148438 -58.21875 24.234375 -56.71875 C 24.328125 -55.226562 24.375 -53.953125 24.375 -52.890625 L 24.375 -49.890625 C 26.625 -53.640625 29.296875 -56.941406 32.390625 -59.796875 C 35.484375 -62.648438 39.097656 -64.675781 43.234375 -65.875 C 44.128906 -66.132812 45.003906 -66.207031 45.859375 -66.09375 C 46.710938 -65.988281 47.5625 -65.816406 48.40625 -65.578125 C 49.257812 -65.347656 50.164062 -65.101562 51.125 -64.84375 C 52.09375 -64.59375 53.128906 -64.46875 54.234375 -64.46875 C 55.085938 -64.46875 55.984375 -64.570312 56.921875 -64.78125 C 57.859375 -65 58.925781 -65.363281 60.125 -65.875 C 58.882812 -64.632812 57.664062 -63.414062 56.46875 -62.21875 C 55.28125 -61.03125 54.097656 -59.957031 52.921875 -59 C 51.753906 -58.039062 50.601562 -57.226562 49.46875 -56.5625 C 48.34375 -55.90625 47.265625 -55.515625 46.234375 -55.390625 C 45.128906 -55.253906 44.078125 -55.328125 43.078125 -55.609375 C 42.078125 -55.890625 41.050781 -56.1875 40 -56.5 C 38.957031 -56.820312 37.859375 -57.054688 36.703125 -57.203125 C 35.554688 -57.359375 34.320312 -57.242188 33 -56.859375 C 32.101562 -56.554688 31.21875 -55.734375 30.34375 -54.390625 C 29.46875 -53.046875 28.613281 -51.382812 27.78125 -49.40625 C 26.957031 -47.425781 26.191406 -45.226562 25.484375 -42.8125 C 24.785156 -40.40625 24.15625 -38.007812 23.59375 -35.625 Z M 23.59375 -35.5 "/></g></g><g style="fill:#000000;fill-opacity:1;"><g transform="translate(141.707343, 221.973669)"><path style="stroke:none" d="M 42.984375 -21.234375 L 41.640625 -14.640625 C 40.660156 -13.835938 39.519531 -12.828125 38.21875 -11.609375 C 36.914062 -10.390625 35.503906 -9.117188 33.984375 -7.796875 C 32.472656 -6.472656 30.90625 -5.179688 29.28125 -3.921875 C 27.664062 -2.671875 26.046875 -1.609375 24.421875 -0.734375 C 22.804688 0.140625 21.21875 0.753906 19.65625 1.109375 C 18.101562 1.472656 16.664062 1.398438 15.34375 0.890625 C 14.5 0.597656 13.765625 0.15625 13.140625 -0.4375 C 12.523438 -1.039062 12.015625 -1.894531 11.609375 -3 C 11.203125 -4.113281 10.890625 -5.53125 10.671875 -7.25 C 10.460938 -8.976562 10.359375 -11.101562 10.359375 -13.625 C 10.359375 -21.207031 10.519531 -28.570312 10.84375 -35.71875 C 11.164062 -42.863281 11.5625 -49.953125 12.03125 -56.984375 C 10.238281 -56.859375 8.476562 -56.632812 6.75 -56.3125 C 5.019531 -55.988281 3.6875 -55.46875 2.75 -54.75 C 5.4375 -57.132812 7.546875 -59.335938 9.078125 -61.359375 C 10.617188 -63.390625 11.789062 -65.191406 12.59375 -66.765625 L 13.359375 -78.46875 L 24.375 -87.625 L 23.03125 -64.71875 C 23.96875 -64.632812 24.835938 -64.59375 25.640625 -64.59375 C 26.453125 -64.59375 27.242188 -64.59375 28.015625 -64.59375 C 31.722656 -64.59375 35.164062 -64.921875 38.34375 -65.578125 C 41.519531 -66.242188 44.578125 -67.132812 47.515625 -68.25 C 44.785156 -66.070312 42.171875 -64.300781 39.671875 -62.9375 C 37.179688 -61.570312 34.867188 -60.472656 32.734375 -59.640625 C 30.609375 -58.804688 28.671875 -58.207031 26.921875 -57.84375 C 25.171875 -57.488281 23.703125 -57.242188 22.515625 -57.109375 C 22.085938 -49.429688 21.753906 -43.21875 21.515625 -38.46875 C 21.285156 -33.71875 21.109375 -30.039062 20.984375 -27.4375 C 20.804688 -24.363281 20.71875 -22.125 20.71875 -20.71875 C 20.59375 -18.632812 20.722656 -16.78125 21.109375 -15.15625 C 21.492188 -13.539062 22.078125 -12.195312 22.859375 -11.125 C 23.648438 -10.0625 24.609375 -9.316406 25.734375 -8.890625 C 26.867188 -8.460938 28.117188 -8.421875 29.484375 -8.765625 C 30.546875 -9.109375 31.78125 -9.789062 33.1875 -10.8125 C 34.382812 -11.664062 35.800781 -12.910156 37.4375 -14.546875 C 39.082031 -16.191406 40.929688 -18.421875 42.984375 -21.234375 Z M 2.75 -54.75 L 2.359375 -54.484375 Z M 2.75 -54.75 "/></g></g><g style="fill:#000000;fill-opacity:1;"><g transform="translate(185.065159, 221.973669)"><path style="stroke:none" d="M 36.515625 -19.890625 L 35.109375 -14.640625 C 34.390625 -13.921875 33.503906 -13.015625 32.453125 -11.921875 C 31.410156 -10.835938 30.257812 -9.6875 29 -8.46875 C 27.75 -7.257812 26.441406 -6.054688 25.078125 -4.859375 C 23.710938 -3.660156 22.367188 -2.59375 21.046875 -1.65625 C 19.722656 -0.71875 18.453125 0.015625 17.234375 0.546875 C 16.015625 1.078125 14.9375 1.28125 14 1.15625 C 12.550781 0.9375 11.519531 -0.117188 10.90625 -2.015625 C 10.289062 -3.910156 9.984375 -6.988281 9.984375 -11.25 C 9.984375 -12.019531 10.015625 -13.269531 10.078125 -15 C 10.140625 -16.726562 10.222656 -18.742188 10.328125 -21.046875 C 10.429688 -23.347656 10.554688 -25.875 10.703125 -28.625 C 10.859375 -31.375 11.019531 -34.144531 11.1875 -36.9375 C 11.363281 -39.726562 11.546875 -42.476562 11.734375 -45.1875 C 11.929688 -47.894531 12.132812 -50.378906 12.34375 -52.640625 C 12.46875 -54.128906 12.164062 -55.203125 11.4375 -55.859375 C 10.71875 -56.523438 9.828125 -56.859375 8.765625 -56.859375 C 7.867188 -56.859375 6.929688 -56.644531 5.953125 -56.21875 C 4.972656 -55.789062 4.078125 -55.210938 3.265625 -54.484375 C 4.960938 -56.148438 6.472656 -57.546875 7.796875 -58.671875 C 9.117188 -59.804688 10.25 -60.738281 11.1875 -61.46875 C 12.300781 -62.269531 13.238281 -62.953125 14 -63.515625 C 15.070312 -64.148438 16.109375 -64.476562 17.109375 -64.5 C 18.109375 -64.519531 19.003906 -64.273438 19.796875 -63.765625 C 20.585938 -63.253906 21.207031 -62.507812 21.65625 -61.53125 C 22.101562 -60.550781 22.300781 -59.378906 22.25 -58.015625 C 22.207031 -57.078125 22.113281 -55.570312 21.96875 -53.5 C 21.820312 -51.425781 21.648438 -49.066406 21.453125 -46.421875 C 21.265625 -43.785156 21.050781 -40.992188 20.8125 -38.046875 C 20.582031 -35.109375 20.367188 -32.273438 20.171875 -29.546875 C 19.984375 -26.816406 19.8125 -24.34375 19.65625 -22.125 C 19.507812 -19.90625 19.414062 -18.203125 19.375 -17.015625 C 19.289062 -14.578125 19.554688 -12.613281 20.171875 -11.125 C 20.796875 -9.632812 21.789062 -8.890625 23.15625 -8.890625 C 24.175781 -8.890625 25.359375 -9.335938 26.703125 -10.234375 C 28.046875 -11.128906 29.378906 -12.171875 30.703125 -13.359375 C 32.023438 -14.554688 33.207031 -15.773438 34.25 -17.015625 C 35.289062 -18.253906 36.046875 -19.210938 36.515625 -19.890625 Z M 25.640625 -114.234375 C 25.734375 -112.140625 25.679688 -110.269531 25.484375 -108.625 C 25.296875 -106.988281 25.070312 -105.59375 24.8125 -104.4375 C 24.519531 -103.070312 24.160156 -101.878906 23.734375 -100.859375 C 23.210938 -99.835938 22.421875 -98.726562 21.359375 -97.53125 C 20.460938 -96.507812 19.234375 -95.328125 17.671875 -93.984375 C 16.117188 -92.640625 14.109375 -91.222656 11.640625 -89.734375 C 12.453125 -91.347656 13.09375 -93.0625 13.5625 -94.875 C 14.03125 -96.6875 14.390625 -98.363281 14.640625 -99.90625 C 14.941406 -101.695312 15.132812 -103.460938 15.21875 -105.203125 Z M 25.640625 -114.234375 "/></g></g><g style="fill:#000000;fill-opacity:1;"><g transform="translate(218.830549, 221.973669)"><path style="stroke:none" d="M 61.46875 -115.375 C 62.363281 -114.695312 62.617188 -113.800781 62.234375 -112.6875 C 62.054688 -112.21875 61.734375 -111.664062 61.265625 -111.03125 C 60.796875 -110.394531 60.101562 -109.671875 59.1875 -108.859375 C 58.269531 -108.046875 57.097656 -107.148438 55.671875 -106.171875 C 54.242188 -105.191406 52.484375 -104.125 50.390625 -102.96875 C 51.203125 -104.164062 51.488281 -105.175781 51.25 -106 C 51.019531 -106.832031 50.53125 -107.492188 49.78125 -107.984375 C 49.039062 -108.484375 48.144531 -108.835938 47.09375 -109.046875 C 46.050781 -109.253906 45.109375 -109.359375 44.265625 -109.359375 C 42.296875 -109.359375 40.320312 -109.050781 38.34375 -108.4375 C 36.363281 -107.820312 34.710938 -106.957031 33.390625 -105.84375 C 32.785156 -105.289062 32.164062 -104.660156 31.53125 -103.953125 C 30.894531 -103.253906 30.265625 -102.304688 29.640625 -101.109375 C 29.023438 -99.921875 28.394531 -98.421875 27.75 -96.609375 C 27.113281 -94.796875 26.484375 -92.515625 25.859375 -89.765625 C 25.242188 -87.015625 24.648438 -83.726562 24.078125 -79.90625 C 23.503906 -76.09375 22.941406 -71.585938 22.390625 -66.390625 L 22.125 -64.34375 C 24.507812 -64.125 26.671875 -63.984375 28.609375 -63.921875 C 30.554688 -63.859375 32.234375 -63.804688 33.640625 -63.765625 C 35.304688 -63.722656 36.800781 -63.722656 38.125 -63.765625 C 39.78125 -63.804688 41.398438 -63.9375 42.984375 -64.15625 C 44.347656 -64.363281 45.765625 -64.648438 47.234375 -65.015625 C 48.703125 -65.378906 49.945312 -65.921875 50.96875 -66.640625 C 48.925781 -65.191406 46.96875 -63.835938 45.09375 -62.578125 C 43.21875 -61.328125 41.328125 -60.238281 39.421875 -59.3125 C 37.523438 -58.394531 35.578125 -57.671875 33.578125 -57.140625 C 31.578125 -56.609375 29.425781 -56.34375 27.125 -56.34375 C 26.132812 -56.34375 25.179688 -56.363281 24.265625 -56.40625 C 23.347656 -56.445312 22.421875 -56.515625 21.484375 -56.609375 C 21.054688 -51.578125 20.691406 -46.394531 20.390625 -41.0625 C 20.097656 -35.726562 19.8125 -30.4375 19.53125 -25.1875 C 19.257812 -19.945312 18.972656 -14.863281 18.671875 -9.9375 C 18.378906 -5.019531 18.03125 -0.484375 17.625 3.671875 C 17.21875 7.828125 16.742188 11.503906 16.203125 14.703125 C 15.671875 17.898438 15.023438 20.414062 14.265625 22.25 C 13.023438 25.28125 11.359375 28.140625 9.265625 30.828125 C 7.179688 33.515625 4.929688 35.976562 2.515625 38.21875 C 0.109375 40.457031 -2.347656 42.4375 -4.859375 44.15625 C -7.378906 45.882812 -9.679688 47.285156 -11.765625 48.359375 C -13.640625 49.335938 -15.578125 50.039062 -17.578125 50.46875 C -19.585938 50.894531 -21.59375 51.109375 -23.59375 51.109375 C -26.03125 51.109375 -28.28125 50.835938 -30.34375 50.296875 C -32.414062 49.765625 -34.046875 49.117188 -35.234375 48.359375 C -35.960938 47.929688 -36.304688 47.363281 -36.265625 46.65625 C -36.222656 45.945312 -35.945312 45.175781 -35.4375 44.34375 C -34.925781 43.519531 -34.242188 42.671875 -33.390625 41.796875 C -32.535156 40.921875 -31.640625 40.078125 -30.703125 39.265625 C -29.765625 38.453125 -28.847656 37.726562 -27.953125 37.09375 C -27.054688 36.457031 -26.332031 35.96875 -25.78125 35.625 C -26.03125 36.644531 -26.054688 37.539062 -25.859375 38.3125 C -25.671875 39.082031 -25.160156 39.753906 -24.328125 40.328125 C -23.503906 40.898438 -22.3125 41.398438 -20.75 41.828125 C -19.195312 42.253906 -17.207031 42.640625 -14.78125 42.984375 C -10 43.703125 -5.859375 42.585938 -2.359375 39.640625 C 1.128906 36.703125 3.664062 31.910156 5.25 25.265625 C 5.925781 22.492188 6.5 19.21875 6.96875 15.4375 C 7.4375 11.664062 7.863281 7.582031 8.25 3.1875 C 8.632812 -1.195312 8.960938 -5.816406 9.234375 -10.671875 C 9.515625 -15.535156 9.78125 -20.484375 10.03125 -25.515625 C 10.289062 -30.546875 10.570312 -35.566406 10.875 -40.578125 C 11.175781 -45.585938 11.515625 -50.4375 11.890625 -55.125 C 11.890625 -55.46875 11.910156 -55.773438 11.953125 -56.046875 C 12.003906 -56.328125 12.03125 -56.640625 12.03125 -56.984375 C 10.707031 -56.898438 9.394531 -56.71875 8.09375 -56.4375 C 6.789062 -56.164062 5.5 -55.6875 4.21875 -55 C 5.070312 -55.6875 5.878906 -56.410156 6.640625 -57.171875 C 7.410156 -57.941406 8.097656 -58.644531 8.703125 -59.28125 C 9.378906 -60.050781 10.015625 -60.78125 10.609375 -61.46875 C 10.828125 -61.71875 11.066406 -62.035156 11.328125 -62.421875 C 11.535156 -62.765625 11.773438 -63.148438 12.046875 -63.578125 C 12.328125 -64.003906 12.640625 -64.515625 12.984375 -65.109375 C 13.753906 -71.753906 14.679688 -77.390625 15.765625 -82.015625 C 16.847656 -86.648438 18.144531 -90.597656 19.65625 -93.859375 C 21.175781 -97.117188 22.925781 -99.859375 24.90625 -102.078125 C 26.894531 -104.296875 29.207031 -106.34375 31.84375 -108.21875 C 36.113281 -111.15625 40.101562 -113.347656 43.8125 -114.796875 C 47.519531 -116.253906 50.953125 -116.984375 54.109375 -116.984375 C 56.835938 -116.984375 59.289062 -116.445312 61.46875 -115.375 Z M 61.46875 -115.375 "/></g></g><g style="fill:#000000;fill-opacity:1;"><g transform="translate(259.438213, 221.973669)"><path style="stroke:none" d="M 40.875 -18.609375 C 38.613281 -16.054688 36.53125 -13.804688 34.625 -11.859375 C 32.726562 -9.921875 31.054688 -8.289062 29.609375 -6.96875 C 27.898438 -5.4375 26.363281 -4.113281 25 -3 C 21.25 -0.0195312 17.988281 1.46875 15.21875 1.46875 C 13.644531 1.46875 12.289062 1.050781 11.15625 0.21875 C 10.03125 -0.601562 9.0625 -1.675781 8.25 -3 C 7.4375 -4.320312 6.773438 -5.816406 6.265625 -7.484375 C 5.753906 -9.148438 5.359375 -10.820312 5.078125 -12.5 C 4.804688 -14.1875 4.613281 -15.796875 4.5 -17.328125 C 4.394531 -18.867188 4.34375 -20.171875 4.34375 -21.234375 C 4.34375 -24.085938 4.671875 -27.175781 5.328125 -30.5 C 5.992188 -33.832031 6.957031 -37.148438 8.21875 -40.453125 C 9.476562 -43.753906 11.023438 -46.929688 12.859375 -49.984375 C 14.691406 -53.035156 16.789062 -55.742188 19.15625 -58.109375 C 21.519531 -60.472656 24.117188 -62.359375 26.953125 -63.765625 C 29.796875 -65.171875 32.859375 -65.875 36.140625 -65.875 C 37.035156 -65.875 37.78125 -65.710938 38.375 -65.390625 C 38.96875 -65.078125 39.457031 -64.640625 39.84375 -64.078125 C 40.226562 -63.523438 40.492188 -62.90625 40.640625 -62.21875 C 40.796875 -61.539062 40.875 -60.84375 40.875 -60.125 C 40.875 -58.25 40.445312 -56.367188 39.59375 -54.484375 C 38.738281 -52.609375 37.597656 -50.765625 36.171875 -48.953125 C 34.742188 -47.140625 33.113281 -45.367188 31.28125 -43.640625 C 29.445312 -41.921875 27.535156 -40.28125 25.546875 -38.71875 C 23.566406 -37.164062 21.59375 -35.707031 19.625 -34.34375 C 17.664062 -32.976562 15.878906 -31.742188 14.265625 -30.640625 L 14.265625 -29.234375 C 14.265625 -28.160156 14.316406 -26.867188 14.421875 -25.359375 C 14.523438 -23.847656 14.710938 -22.269531 14.984375 -20.625 C 15.265625 -18.976562 15.640625 -17.34375 16.109375 -15.71875 C 16.585938 -14.101562 17.1875 -12.65625 17.90625 -11.375 C 18.632812 -10.101562 19.5 -9.070312 20.5 -8.28125 C 21.5 -7.488281 22.660156 -7.09375 23.984375 -7.09375 C 24.578125 -7.09375 25.191406 -7.1875 25.828125 -7.375 C 26.472656 -7.570312 27.113281 -7.90625 27.75 -8.375 C 28.863281 -9.269531 30.125 -10.507812 31.53125 -12.09375 C 32.726562 -13.457031 34.113281 -15.222656 35.6875 -17.390625 C 37.257812 -19.566406 38.988281 -22.316406 40.875 -25.640625 Z M 28.96875 -56.34375 C 28.457031 -56.9375 27.796875 -57.316406 26.984375 -57.484375 C 26.179688 -57.660156 25.320312 -57.617188 24.40625 -57.359375 C 23.488281 -57.109375 22.59375 -56.617188 21.71875 -55.890625 C 20.84375 -55.171875 20.101562 -54.210938 19.5 -53.015625 C 18.65625 -51.316406 17.71875 -48.878906 16.6875 -45.703125 C 15.664062 -42.523438 14.941406 -38.867188 14.515625 -34.734375 C 15.878906 -35.535156 17.285156 -36.46875 18.734375 -37.53125 C 20.179688 -38.601562 21.578125 -39.734375 22.921875 -40.921875 C 24.265625 -42.117188 25.476562 -43.367188 26.5625 -44.671875 C 27.65625 -45.972656 28.507812 -47.296875 29.125 -48.640625 C 29.75 -49.984375 30.082031 -51.304688 30.125 -52.609375 C 30.164062 -53.910156 29.78125 -55.15625 28.96875 -56.34375 Z M 28.96875 -56.34375 "/></g></g><g style="fill:#000000;fill-opacity:1;"><g transform="translate(303.691323, 221.973669)"><path style="stroke:none" d="M 66.96875 -65.5 C 67.257812 -65.40625 67.351562 -65.09375 67.25 -64.5625 C 67.144531 -64.03125 66.890625 -63.367188 66.484375 -62.578125 C 66.078125 -61.796875 65.53125 -60.945312 64.84375 -60.03125 C 64.164062 -59.113281 63.390625 -58.21875 62.515625 -57.34375 C 61.640625 -56.46875 60.703125 -55.675781 59.703125 -54.96875 C 58.703125 -54.269531 57.671875 -53.769531 56.609375 -53.46875 C 57.078125 -54.40625 57.265625 -55.179688 57.171875 -55.796875 C 57.085938 -56.421875 56.898438 -56.898438 56.609375 -57.234375 C 56.265625 -57.660156 55.816406 -57.960938 55.265625 -58.140625 C 53.640625 -58.609375 51.984375 -58.640625 50.296875 -58.234375 C 48.617188 -57.828125 47.179688 -56.707031 45.984375 -54.875 L 36.015625 -38.25 C 37.160156 -34.582031 38.4375 -30.9375 39.84375 -27.3125 C 41.25 -23.6875 42.78125 -20.421875 44.4375 -17.515625 C 46.101562 -14.617188 47.925781 -12.265625 49.90625 -10.453125 C 51.894531 -8.640625 54.039062 -7.734375 56.34375 -7.734375 C 57.195312 -7.734375 58.125 -7.9375 59.125 -8.34375 C 60.125 -8.75 61.160156 -9.421875 62.234375 -10.359375 C 59.847656 -7.847656 57.648438 -5.851562 55.640625 -4.375 C 53.640625 -2.90625 51.914062 -1.785156 50.46875 -1.015625 C 48.757812 -0.128906 47.222656 0.460938 45.859375 0.765625 C 43.765625 0.0859375 41.875 -1.09375 40.1875 -2.78125 C 38.507812 -4.46875 36.976562 -6.492188 35.59375 -8.859375 C 34.207031 -11.222656 32.9375 -13.832031 31.78125 -16.6875 C 30.632812 -19.550781 29.550781 -22.492188 28.53125 -25.515625 C 27.675781 -24.066406 26.640625 -22.53125 25.421875 -20.90625 C 24.203125 -19.289062 22.890625 -17.679688 21.484375 -16.078125 C 20.078125 -14.484375 18.628906 -12.953125 17.140625 -11.484375 C 15.648438 -10.015625 14.222656 -8.722656 12.859375 -7.609375 C 13.753906 -7.523438 14.59375 -7.460938 15.375 -7.421875 C 16.164062 -7.378906 16.925781 -7.359375 17.65625 -7.359375 C 20.300781 -7.359375 22.300781 -7.523438 23.65625 -7.859375 C 25.019531 -8.203125 25.789062 -8.414062 25.96875 -8.5 C 23.539062 -6.582031 21.472656 -4.992188 19.765625 -3.734375 C 18.054688 -2.484375 16.46875 -1.492188 15 -0.765625 C 13.53125 -0.046875 12.078125 0.453125 10.640625 0.734375 C 9.210938 1.015625 7.539062 1.15625 5.625 1.15625 C 3.5 1.15625 0.878906 1.023438 -2.234375 0.765625 L 7.234375 -8.640625 C 7.703125 -8.503906 8.179688 -8.382812 8.671875 -8.28125 C 9.160156 -8.175781 9.640625 -8.082031 10.109375 -8 C 11.046875 -8.71875 11.941406 -9.578125 12.796875 -10.578125 C 13.648438 -11.585938 14.414062 -12.515625 15.09375 -13.359375 C 15.863281 -14.390625 16.585938 -15.4375 17.265625 -16.5 C 18.242188 -18.125 19.519531 -20.320312 21.09375 -23.09375 C 22.675781 -25.863281 24.472656 -28.867188 26.484375 -32.109375 C 25.796875 -34.367188 25.109375 -36.582031 24.421875 -38.75 C 23.742188 -40.925781 23.050781 -43.003906 22.34375 -44.984375 C 21.644531 -46.972656 20.921875 -48.804688 20.171875 -50.484375 C 19.429688 -52.171875 18.65625 -53.632812 17.84375 -54.875 C 17.113281 -55.9375 16.269531 -56.703125 15.3125 -57.171875 C 14.351562 -57.640625 13.363281 -57.875 12.34375 -57.875 C 10.675781 -57.875 9.078125 -57.4375 7.546875 -56.5625 C 6.015625 -55.695312 4.757812 -54.75 3.78125 -53.71875 C 4.800781 -55.082031 5.9375 -56.519531 7.1875 -58.03125 C 8.445312 -59.550781 9.8125 -60.9375 11.28125 -62.1875 C 12.757812 -63.445312 14.304688 -64.484375 15.921875 -65.296875 C 17.546875 -66.109375 19.234375 -66.515625 20.984375 -66.515625 C 22.554688 -66.515625 24.035156 -66.023438 25.421875 -65.046875 C 26.804688 -64.066406 28.03125 -62.425781 29.09375 -60.125 C 29.738281 -58.539062 30.488281 -56.332031 31.34375 -53.5 C 32.195312 -50.664062 33.15625 -47.5 34.21875 -44 C 36.4375 -47.15625 38.628906 -50.054688 40.796875 -52.703125 C 42.972656 -55.347656 45.085938 -57.476562 47.140625 -59.09375 C 49.648438 -60.925781 51.972656 -62.332031 54.109375 -63.3125 C 56.242188 -64.289062 58.140625 -64.972656 59.796875 -65.359375 C 61.460938 -65.742188 62.898438 -65.90625 64.109375 -65.84375 C 65.328125 -65.78125 66.28125 -65.664062 66.96875 -65.5 Z M 66.96875 -65.5 "/></g></g></g></svg>