<svg xmlns="http://www.w3.org/2000/svg" xmlns:xlink="http://www.w3.org/1999/xlink" width="1080" zoomAndPan="magnify" viewBox="0 0 810 809.999993" height="1080" preserveAspectRatio="xMidYMid meet" version="1.2"><defs><clipPath id="3338b86aba"><path d="M 19.742188 0 L 789.992188 0 L 789.992188 810 L 19.742188 810 Z M 19.742188 0 "/></clipPath></defs><g id="05ff210b02"><path style=" stroke:none;fill-rule:nonzero;fill:#000000;fill-opacity:1;" d="M 404.890625 200.484375 C 319.804688 200.484375 250.828125 272.953125 250.828125 362.347656 C 250.828125 451.75 319.804688 524.21875 404.890625 524.21875 C 489.980469 524.21875 558.945312 451.75 558.945312 362.347656 C 558.945312 272.953125 489.980469 200.484375 404.890625 200.484375 "/><g clip-rule="nonzero" clip-path="url(#3338b86aba)"><path style=" stroke:none;fill-rule:nonzero;fill:#000000;fill-opacity:1;" d="M 660.753906 684.367188 C 626.632812 601.050781 555.003906 548.941406 404.65625 548.941406 C 254.507812 548.941406 182.878906 600.914062 148.703125 684.039062 C 79.15625 613.523438 35.890625 514.570312 35.890625 405 C 35.890625 190.871094 201.097656 17.289062 404.890625 17.289062 C 608.6875 17.289062 773.894531 190.871094 773.894531 405 C 773.894531 514.746094 730.492188 613.832031 660.753906 684.367188 Z M 404.890625 0.328125 C 192.179688 0.328125 19.742188 181.503906 19.742188 405 C 19.742188 521.894531 66.914062 627.214844 142.355469 701.09375 C 211.140625 768.457031 303.429688 809.671875 404.890625 809.671875 C 506.171875 809.671875 598.324219 768.59375 667.082031 701.429688 C 742.714844 627.542969 790.039062 522.074219 790.039062 405 C 790.039062 181.503906 617.597656 0.328125 404.890625 0.328125 "/></g></g></svg>